<?xml version="1.0" standalone="no"?><!DOCTYPE svg PUBLIC "-//W3C//DTD SVG 1.1//EN" "http://www.w3.org/Graphics/SVG/1.1/DTD/svg11.dtd"><svg t="1593256747329" class="icon" viewBox="0 0 1024 1024" version="1.1" xmlns="http://www.w3.org/2000/svg" p-id="1723" xmlns:xlink="http://www.w3.org/1999/xlink" width="200" height="200"><defs><style type="text/css"></style></defs><path d="M512 144.49363718c-202.63153436 0-367.50636282 164.8734104-367.50636282 367.50636282 0 202.65846515 164.84789685 367.50636282 367.50636282 367.50636282S879.50636282 714.65846515 879.50636282 512C879.50636282 309.36846564 714.65846515 144.49363718 512 144.49363718zM689.34511482 451.38204522L478.22335266 664.79716025c-0.05244351 0.05244351-0.1587486 0.0793743-0.21119292 0.15874859-0.0793743 0.05244351-0.0793743 0.1587486-0.1587486 0.21119294-1.68812375 1.63426218-3.77028452 2.63636444-5.72204472 3.74477095-0.97517148 0.55420367-1.76608081 1.39755652-2.79511303 1.79301161-3.16363732 1.2657387-6.51295404 1.9248294-9.86085351 1.92482941-3.37483026 0-6.77659049-0.6590907-9.96715861-1.97727293-1.05454578-0.44789858-1.89789863-1.34511301-2.90000089-1.89789861-1.95176019-1.10698928-3.98147745-2.08357801-5.6696012-3.74477097-0.05244351-0.05244351-0.0793743-0.1587486-0.13181779-0.21119294-0.05244351-0.0793743-0.1587486-0.0793743-0.21119294-0.15874859l-103.83448783-106.70755792c-10.15142075-10.44198715-9.91471426-27.13187467 0.52727291-37.28329541 10.44198715-10.12448996 27.10494471-9.94022782 37.2832954 0.52727289l85.08653503 87.43374948 192.216478-194.32556956c10.23079505-10.36261286 26.94761252-10.4675007 37.28329539-0.21119292C699.47102199 424.32954487 699.57590985 441.01943237 689.34511482 451.38204522z" fill="#ff3333" p-id="1724"></path></svg>