<?xml version="1.0" standalone="no"?><!DOCTYPE svg PUBLIC "-//W3C//DTD SVG 1.1//EN" "http://www.w3.org/Graphics/SVG/1.1/DTD/svg11.dtd"><svg t="1593506071738" class="icon" viewBox="0 0 1024 1024" version="1.1" xmlns="http://www.w3.org/2000/svg" p-id="16231" xmlns:xlink="http://www.w3.org/1999/xlink" width="200" height="200"><defs><style type="text/css"></style></defs><path d="M803.95150757 182.72161865c28.56555175 0 51.97302247 22.67330932 52.88433837 51.22402955l6.09494019 191.15304565c0.55865479 17.52429199-13.19430542 32.18280029-30.71859741 32.74227905-17.52429199 0.55865479-32.18280029-13.19430542-32.74227905-30.71859741l-4.20639038-132.38800049-280.41174317 276.26879883c-11.35437012 11.1862793-28.99813843 12.0786438-41.35693359 2.76525879l-3.537323-3.10061645c-12.30441284-12.48980713-12.15444946-32.58984375 0.33535766-44.89508057l283.74224854-279.59024048-134.4776001 0.03048706c-16.07244873 0-29.35409546-11.94268799-31.45605469-27.4383545l-0.29003906-4.30773925c0-17.53253174 14.21356201-31.74609375 31.74609375-31.74609375h184.39398194zM468.81713867 143.09255982c17.40563965-2.10607911 33.2243042 10.29638672 35.3303833 27.70285034 2.10607911 17.40563965-10.29638672 33.22348023-27.70285034 35.32955932C323.3180542 224.65533447 206.85501099 355.15478516 206.85501099 510.76651001c0 169.48580932 137.39529419 306.88110352 306.88110351 306.88110351 153.04421997 0 282.12478638-112.73373413 303.72857667-262.69876098 2.49993896-17.35372925 18.59463501-29.39529419 35.94836425-26.89535522s29.39529419 18.59463501 26.89535523 35.94836425C854.21972656 745.10653687 698.45886231 881.140625 513.7361145 881.140625 309.18441773 881.140625 143.36199951 715.31820679 143.36199951 510.76651001c0.00082398-187.82089234 140.53793335-345.29727172 325.45513916-367.67395019z" p-id="16232" fill="#ffffff"></path></svg>