<?xml version="1.0" standalone="no"?><!DOCTYPE svg PUBLIC "-//W3C//DTD SVG 1.1//EN" "http://www.w3.org/Graphics/SVG/1.1/DTD/svg11.dtd"><svg t="1593256742445" class="icon" viewBox="0 0 1024 1024" version="1.1" xmlns="http://www.w3.org/2000/svg" p-id="1585" xmlns:xlink="http://www.w3.org/1999/xlink" width="200" height="200"><defs><style type="text/css"></style></defs><path d="M448 377.6L185.6 640l64 64L512 448l262.4 262.4 64-64L576 377.6l-64-64-64 64z" fill="#ffffff" p-id="1586"></path><path d="M512 313.6l64 64 262.4 262.4-64 64L512 448l-262.4 262.4-64-64L448 377.6l64-64m0-89.6c-25.6 0-51.2 12.8-64 25.6l-64 64L115.2 576c-19.2 19.2-25.6 38.4-25.6 64s12.8 51.2 25.6 64l64 64c19.2 19.2 44.8 25.6 64 25.6 25.6 0 44.8-6.4 64-25.6L512 576l198.4 198.4c19.2 19.2 44.8 25.6 64 25.6s44.8-6.4 64-25.6l64-64c19.2-19.2 25.6-38.4 25.6-64s-12.8-51.2-25.6-64L640 320 576 256c-12.8-25.6-38.4-32-64-32z" fill="#ff3333" p-id="1587"></path></svg>