<?xml version="1.0" standalone="no"?><!DOCTYPE svg PUBLIC "-//W3C//DTD SVG 1.1//EN" "http://www.w3.org/Graphics/SVG/1.1/DTD/svg11.dtd"><svg t="1593256715669" class="icon" viewBox="0 0 1024 1024" version="1.1" xmlns="http://www.w3.org/2000/svg" p-id="1037" xmlns:xlink="http://www.w3.org/1999/xlink" width="200" height="200"><defs><style type="text/css"></style></defs><path d="M339.91111146 765.06666667a56.88888853 56.88888853 0 1 1 0 113.77777813 56.88888853 56.88888853 0 0 1 0-113.77777813z m409.6 0a56.88888853 56.88888853 0 1 1 0 113.77777813 56.88888853 56.88888853 0 0 1 0-113.77777813zM146.67093333 116.53333333a102.4 102.4 0 0 1 99.1004448 76.5724448l1.09226667 4.68764374L260.94933333 264.4444448 836.36906666 264.4444448a68.26666667 68.26666667 0 0 1 66.85582187 82.07928853l-65.7635552 318.57777814A68.26666667 68.26666667 0 0 1 770.60551146 719.55555521H341.57226666a68.26666667 68.26666667 0 0 1-66.85582186-54.45404374l-64.62577814-312.97991147-0.4323552 0.09102188-29.58222293-140.3335104a34.13333333 34.13333333 0 0 0-30.19662187-26.91982294l-3.18577813-0.15928854H88.25742186v-68.26666667h58.39075627zM715.37777813 446.48888853H396.8v68.26666667h318.57777813v-68.26666667z" fill="#ff3333" p-id="1038"></path></svg>