<?xml version="1.0" standalone="no"?><!DOCTYPE svg PUBLIC "-//W3C//DTD SVG 1.1//EN" "http://www.w3.org/Graphics/SVG/1.1/DTD/svg11.dtd"><svg t="1591663528294" class="icon" viewBox="0 0 1024 1024" version="1.1" xmlns="http://www.w3.org/2000/svg" p-id="7731" xmlns:xlink="http://www.w3.org/1999/xlink" width="200" height="200"><defs><style type="text/css"></style></defs><path d="M222.66666667 423.84V231.744l192-0.096 0.096 192.096L222.66666667 423.84z m192.096-256.096H222.57066667A64 64 0 0 0 158.66666667 231.68v192.192a64 64 0 0 0 63.904 63.904h192.192A64 64 0 0 0 478.66666666 423.84V231.68a64 64 0 0 0-63.90399999-63.904zM222.66666667 807.84v-192.096l192-0.096 0.096 192.096L222.66666667 807.84z m192.096-256.096H222.57066667A64 64 0 0 0 158.66666667 615.68v192.192a64 64 0 0 0 63.904 63.904h192.192A64 64 0 0 0 478.66666666 807.84V615.68a64 64 0 0 0-63.90399999-63.904zM702.73066666 463.616l-135.84-135.84 135.71200001-135.84 135.904 135.744-135.77600001 135.936z m181.02400001-181.024l-135.90400001-135.904a64 64 0 0 0-90.36799999 0L521.57866666 282.56a63.456 63.456 0 0 0-18.65599999 45.056 63.456 63.456 0 0 0 18.65599999 45.312l135.90400001 135.936a63.904 63.904 0 0 0 90.36799999-0.032l135.90400001-135.904a63.936 63.936 0 0 0 0-90.368zM606.66666667 807.84v-192.096l192-0.096 0.096 192.096-192.096 0.096z m192.096-256.096h-192.192A64 64 0 0 0 542.66666667 615.68v192.192a64 64 0 0 0 63.904 63.904h192.192A64 64 0 0 0 862.66666666 807.84V615.68a64 64 0 0 0-63.90399999-63.904z" p-id="7732"></path></svg>